<?xml version="1.0" encoding="UTF-8"?>
<!DOCTYPE svg PUBLIC "-//W3C//DTD SVG 1.1//EN" "http://www.w3.org/Graphics/SVG/1.1/DTD/svg11.dtd">
<!-- Creator: CorelDRAW 2018 (64 Bit Versão de avaliação) -->
<svg xmlns="http://www.w3.org/2000/svg" xml:space="preserve" width="70mm" height="20mm" version="1.1" shape-rendering="geometricPrecision" text-rendering="geometricPrecision" image-rendering="optimizeQuality" fill-rule="evenodd" clip-rule="evenodd"
viewBox="0 0 7000 2000"
 xmlns:xlink="http://www.w3.org/1999/xlink">
 <defs>
   <linearGradient id="id0" gradientUnits="userSpaceOnUse" x1="-1914389" y1="-1833932" x2="-322669" y2="-1833932">
    <stop offset="0" stop-opacity="1" stop-color="black"/>
    <stop offset="0.490196" stop-opacity="1" stop-color="#004855"/>
    <stop offset="1" stop-opacity="1" stop-color="#B2B2B2"/>
   </linearGradient>
 </defs>
 <g id="Camada_x0020_1">
  <metadata id="CorelCorpID_0Corel-Layer"/>
  <g id="_2176233500992">
   <path fill="#B2B2B2" fill-opacity="0.250980" d="M-443693 -474844c134,16613 -13349,30283 -29962,30417l-362083 3103c-16613,134 -30283,-13296 -30417,-29908l-1150 -134721c-134,-16586 13296,-30283 29908,-30417l362083 -3103c16586,-134 30336,13322 30470,29908l1150 134721z"/>
   <path fill="#B2B2B2" fill-opacity="0.250980" d="M-939373 -726710c16345,-2782 29587,-18619 29454,-35232l-1739 -204409c-134,-16613 -13831,-30042 -30417,-29908l-362083 3103c-16586,134 -30096,13831 -29962,30417l2541 296568c134,16586 13376,26511 29347,22043l362859 -82582z"/>
   <path fill="#B2B2B2" fill-opacity="0.250980" d="M-1565147 -551514c63482,-27955 163934,-63910 163934,-63910 15623,-5564 28250,-23702 28116,-40315l-1070 -126321c-134,-16559 -13831,-30042 -30417,-29908l-362083 3103c-16586,134 -30042,13857 -29908,30417l2702 315187c134,16613 12065,23515 26564,15382 0,54 118617,-66852 202162,-103636z"/>
  </g>
  <rect fill="url(#id0)" x="-1916368" y="-1844900" width="1592469" height="21107"/>
  <rect fill="#004855" x="-1916368" y="223988" width="1592469" height="183302"/>
  <g id="_2176233495456">
   <path fill="black" d="M-1489573 -1709617l3558 0 6848 5083 936 -5083 6501 0 0 22471c0,3611 268,8320 268,8320l-6795 0 -375 -6768c-2381,4361 -6394,7223 -10968,7223 -8534,0 -14205,-6340 -14205,-15837 27,-9256 5725,-15409 14232,-15409zm1498 25815c4922,0 8935,-4896 8935,-10861l0 -9497 -8935 0c-4789,0 -7999,3986 -7999,9952 0,6233 3210,10406 7999,10406z"/>
   <g>
    <path fill="black" d="M-1558164 -1727675l0 23220 7330 -5136 3050 0c8534,0 14205,6153 14205,15382 0,9497 -5671,15810 -14205,15810 -4548,0 -8561,-2943 -10941,-7410l-375 6955 -6501 0 0 -43873 7437 -4949zm0 32557c0,6233 3986,11289 8908,11289 4789,0 7972,-4147 7972,-10406 0,-5966 -3183,-9952 -7972,-9952l-8908 0 0 9069z"/>
    <path fill="black" d="M-1522237 -1709590l401 6929c2648,-4468 6955,-7383 11851,-7383l3050 0 0 7678 -5110 0c-5859,0 -9738,3451 -9738,8587l0 14927 -7410 0 0 -30738 6955 0z"/>
    <polygon fill="black" points="-1467022,-1709590 -1457552,-1709590 -1449847,-1684631 -1442143,-1709590 -1432673,-1709590 -1446129,-1678853 -1453539,-1678853 "/>
    <path fill="black" d="M-1415070 -1710045c9738,0 16238,6313 16238,15810 0,9497 -6501,15810 -16238,15810 -9738,0 -16238,-6340 -16238,-15810 0,-9470 6501,-15810 16238,-15810zm0 26217c5110,0 8534,-4147 8534,-10406 0,-6233 -3424,-10406 -8534,-10406 -5136,0 -8534,4147 -8534,10406 0,6260 3397,10406 8534,10406z"/>
   </g>
   <g>
    <rect fill="black" x="-1505170" y="-1760098" width="7437" height="30684"/>
    <path fill="black" d="M-1656904 -1760097l910 5029 6929 -5029 3478 0c8507,0 14178,6153 14178,15355 0,9497 -5671,15837 -14178,15837 -4227,0 -7972,-2515 -10380,-6447l0 24076 -7410 0 0 -48822 6474 0zm936 14473c0,6233 3986,11289 8908,11289 4789,0 7972,-4147 7972,-10406 0,-5966 -3183,-9952 -7972,-9952l-8908 0 0 9069z"/>
    <path fill="black" d="M-1620068 -1760097l401 6929c2648,-4468 6955,-7383 11851,-7383l3050 0 0 7678 -5110 0c-5859,0 -9738,3424 -9738,8587l0 14901 -7410 0 0 -30738 6955 0 0 27z"/>
    <path fill="black" d="M-1584434 -1734336c3157,0 6260,-642 8801,-2408l0 6688c-2916,829 -5752,1150 -8801,1150 -10299,0 -17148,-6340 -17148,-15837 0,-9497 6313,-15810 15783,-15810 8641,0 14366,5324 14366,13296l0 2087c0,1766 -1017,2702 -2782,2702l-19796 0c696,5297 4013,8132 9577,8132zm-3424 -13108l9925 0c0,-5297 -2755,-8132 -7892,-8132 -5431,0 -8347,3799 -8347,10834 0,428 0,829 27,1231l6287 -3932z"/>
    <path fill="black" d="M-1565575 -1760097l6955 0 428 6822c2354,-4414 6073,-7276 10246,-7276 6768,0 11503,2943 12386,7490 2354,-4548 6099,-7490 10353,-7490 7517,0 12520,3611 12520,9042l0 22150 -7410 0 0 -20786c0,-2996 -2220,-4976 -5564,-4976 -5377,0 -9738,5885 -9738,13108l0 12654 -7437 0 0 -20786c0,-2996 -2220,-4976 -5564,-4976 -5377,0 -9738,5859 -9738,13108l0 0 0 7945 -7410 4708 0 -30738 -27 0z"/>
    <g>
     <path fill="black" d="M-1496475 -1772724c0,2515 -2247,4548 -5003,4548 -2755,0 -5003,-2033 -5003,-4548 0,-2515 2247,-4548 5003,-4548 2782,0 5003,2033 5003,4548z"/>
    </g>
    <path fill="black" d="M-1482805 -1760097l0 20331c0,3264 2595,5431 6501,5431 5885,0 10674,-5859 10674,-13108l0 -12654 7437 0 0 30738 -6955 0 -428 -7196c-2515,4628 -6581,7651 -11182,7651 -8079,0 -13456,-3799 -13456,-9497l0 -21696 7410 0z"/>
    <path fill="black" d="M-1451533 -1760097l6955 0 428 6822c2354,-4414 6073,-7276 10246,-7276 6768,0 11503,2943 12386,7490 2354,-4548 6126,-7490 10353,-7490 7517,0 12520,3611 12520,9042l0 22150 -7437 0 0 -20786c0,-2996 -2220,-4976 -5564,-4976 -5377,0 -9738,5885 -9738,13108l0 12654 -7410 0 0 -20786c0,-2996 -2220,-4976 -5564,-4976 -5377,0 -9738,5859 -9738,13108l0 0 0 12654 -7437 0 0 -30738z"/>
   </g>
   <path fill="black" d="M-1681783 -1713710c0,1471 -1204,2675 -2675,2675l-32155 0c-1471,0 -2675,-1204 -2675,-2675l0 -11958c0,-1471 1204,-2675 2675,-2675l32155 0c1471,0 2675,1204 2675,2675l0 11958z"/>
   <path fill="black" d="M-1725629 -1736476c1445,-241 2648,-1632 2648,-3103l0 -18164c0,-1471 -1204,-2675 -2675,-2675l-32155 0c-1471,0 -2675,1204 -2675,2675l0 26350c0,1471 1177,2354 2595,1980l32262 -7062z"/>
   <path fill="black" d="M-1781353 -1721388c5671,-2434 14606,-5564 14606,-5564 1391,-482 2541,-2087 2541,-3558l0 -11209c0,-1471 -1204,-2675 -2675,-2675l-32155 0c-1471,0 -2675,1204 -2675,2675l0 28009c0,1471 1043,2087 2354,1391 -27,0 10540,-5859 18004,-9069z"/>
  </g>
  <g id="_2176233490848">
   <rect fill="none" x="-834748" y="273077" width="433670" height="85124"/>
   <path fill="white" fill-rule="nonzero" d="M-831922 292931l7348 -19154 2787 0 7798 19154 -2885 0 -2216 -5805 -8066 0 -2078 5805 -2689 0zm5511 -7865l6527 0 -1997 -5310c-602,-1614 -1057,-2947 -1373,-3999 -263,1248 -615,2475 -1057,3687l-2100 5622z"/>
   <path id="1" fill="white" fill-rule="nonzero" d="M-808960 292931l-5239 -13884 2519 0 2969 8315c321,896 620,1828 892,2796 210,-731 499,-1610 878,-2639l3085 -8471 2417 0 -5257 13884 -2265 0z"/>
   <polygon id="2" fill="white" fill-rule="nonzero" points="-800694,292931 -800694,290256 -798018,290256 -798018,292931 "/>
   <path id="3" fill="white" fill-rule="nonzero" d="M-787487 287491l2274 -312c62,1467 334,2470 820,3014 486,539 1164,811 2024,811 633,0 1182,-147 1641,-437 459,-294 780,-691 954,-1190 174,-499 259,-1302 259,-2399l0 -13202 2541 0 0 13050c0,1601 -192,2840 -580,3723 -388,878 -999,1547 -1841,2011 -838,459 -1824,691 -2952,691 -1681,0 -2965,-482 -3857,-1449 -892,-968 -1320,-2403 -1284,-4311z"/>
   <path id="4" fill="white" fill-rule="nonzero" d="M-774004 285989c0,-2564 713,-4463 2145,-5698 1190,-1025 2648,-1538 4365,-1538 1904,0 3464,624 4677,1873 1208,1244 1815,2969 1815,5168 0,1783 -268,3183 -803,4204 -535,1021 -1315,1815 -2341,2381 -1021,566 -2140,847 -3348,847 -1944,0 -3513,-620 -4713,-1864 -1199,-1244 -1797,-3036 -1797,-5373zm2408 4c0,1775 388,3103 1164,3982 780,883 1757,1324 2938,1324 1168,0 2140,-441 2920,-1329 776,-887 1164,-2238 1164,-4053 0,-1712 -392,-3010 -1173,-3888 -780,-883 -1752,-1324 -2911,-1324 -1182,0 -2158,437 -2938,1315 -776,878 -1164,2203 -1164,3973z"/>
   <path id="5" fill="white" fill-rule="nonzero" d="M-749174 291192c-874,745 -1717,1266 -2524,1574 -807,308 -1672,459 -2599,459 -1525,0 -2697,-370 -3518,-1115 -820,-740 -1231,-1690 -1231,-2845 0,-678 156,-1297 464,-1859 312,-562 718,-1008 1217,-1347 504,-339 1066,-597 1694,-771 464,-120 1164,-236 2096,-352 1899,-223 3304,-495 4200,-807 9,-321 13,-526 13,-611 0,-954 -223,-1627 -669,-2020 -602,-531 -1498,-794 -2684,-794 -1110,0 -1931,196 -2457,584 -531,388 -918,1075 -1173,2064l-2301 -321c210,-985 553,-1783 1034,-2390 482,-606 1177,-1070 2087,-1400 905,-325 1962,-490 3157,-490 1186,0 2154,138 2898,419 740,281 1289,629 1636,1052 348,424 593,959 736,1605 76,401 116,1124 116,2162l0 3121c0,2180 49,3558 147,4142 94,584 290,1141 575,1676l-2461 0c-236,-495 -388,-1075 -455,-1739zm-187 -5217c-856,348 -2140,642 -3852,883 -972,138 -1659,294 -2060,468 -401,174 -709,428 -927,758 -218,334 -330,704 -330,1115 0,620 236,1141 713,1556 477,415 1173,624 2087,624 905,0 1712,-196 2421,-593 704,-392 1226,-932 1556,-1614 254,-531 379,-1311 379,-2341l13 -856zm-7651 -8614c-9,-896 241,-1610 745,-2145 495,-531 1132,-798 1908,-798 539,0 1275,227 2203,687 513,254 923,383 1226,383 281,0 495,-76 642,-227 147,-147 250,-450 312,-896l1685 0c-27,990 -276,1730 -749,2225 -473,495 -1070,745 -1801,745 -544,0 -1266,-245 -2158,-731 -584,-317 -1012,-473 -1284,-473 -294,0 -535,103 -713,312 -192,205 -285,513 -276,918l-1739 0z"/>
   <path id="6" fill="white" fill-rule="nonzero" d="M-744248 285989c0,-2564 713,-4463 2145,-5698 1190,-1025 2648,-1538 4365,-1538 1904,0 3464,624 4677,1873 1208,1244 1815,2969 1815,5168 0,1783 -268,3183 -803,4204 -535,1021 -1315,1815 -2341,2381 -1021,566 -2140,847 -3348,847 -1944,0 -3513,-620 -4713,-1864 -1199,-1244 -1797,-3036 -1797,-5373zm2408 4c0,1775 388,3103 1164,3982 780,883 1757,1324 2938,1324 1168,0 2140,-441 2920,-1329 776,-887 1164,-2238 1164,-4053 0,-1712 -392,-3010 -1173,-3888 -780,-883 -1752,-1324 -2911,-1324 -1182,0 -2158,437 -2938,1315 -776,878 -1164,2203 -1164,3973z"/>
   <path id="7" fill="white" fill-rule="nonzero" d="M-707117 286212l2541 642c-531,2082 -1485,3665 -2862,4757 -1378,1092 -3063,1641 -5056,1641 -2060,0 -3736,-419 -5029,-1262 -1293,-838 -2274,-2055 -2947,-3647 -673,-1596 -1012,-3304 -1012,-5132 0,-1993 379,-3732 1141,-5217 762,-1485 1846,-2613 3250,-3384 1404,-771 2952,-1155 4637,-1155 1917,0 3527,486 4829,1462 1306,976 2216,2345 2729,4111l-2488 589c-441,-1391 -1088,-2408 -1931,-3041 -843,-638 -1904,-954 -3183,-954 -1467,0 -2697,352 -3683,1057 -985,704 -1681,1654 -2078,2840 -401,1190 -602,2417 -602,3678 0,1627 236,3050 709,4262 473,1217 1208,2122 2207,2724 999,602 2078,901 3241,901 1418,0 2613,-410 3594,-1226 981,-820 1645,-2033 1993,-3647z"/>
   <path id="8" fill="white" fill-rule="nonzero" d="M-692666 291192c-874,745 -1717,1266 -2524,1574 -807,308 -1672,459 -2599,459 -1525,0 -2697,-370 -3518,-1115 -820,-740 -1231,-1690 -1231,-2845 0,-678 156,-1297 464,-1859 312,-562 718,-1008 1217,-1347 504,-339 1066,-597 1694,-771 464,-120 1164,-236 2096,-352 1899,-223 3304,-495 4200,-807 9,-321 13,-526 13,-611 0,-954 -223,-1627 -669,-2020 -602,-531 -1498,-794 -2684,-794 -1110,0 -1931,196 -2457,584 -531,388 -918,1075 -1173,2064l-2301 -321c210,-985 553,-1783 1034,-2390 482,-606 1177,-1070 2087,-1400 905,-325 1962,-490 3157,-490 1186,0 2154,138 2898,419 740,281 1289,629 1636,1052 348,424 593,959 736,1605 76,401 116,1124 116,2162l0 3121c0,2180 49,3558 147,4142 94,584 290,1141 575,1676l-2461 0c-236,-495 -388,-1075 -455,-1739zm-187 -5217c-856,348 -2140,642 -3852,883 -972,138 -1659,294 -2060,468 -401,174 -709,428 -927,758 -218,334 -330,704 -330,1115 0,620 236,1141 713,1556 477,415 1173,624 2087,624 905,0 1712,-196 2421,-593 704,-392 1226,-932 1556,-1614 254,-531 379,-1311 379,-2341l13 -856z"/>
   <path id="9" fill="white" fill-rule="nonzero" d="M-684690 292931l-2194 0 0 -19154 2354 0 0 6835c994,-1239 2261,-1859 3803,-1859 852,0 1663,169 2425,513 762,343 1387,829 1882,1449 490,624 878,1373 1155,2252 281,874 419,1815 419,2813 0,2372 -589,4209 -1761,5502 -1177,1297 -2586,1944 -4231,1944 -1636,0 -2920,-682 -3852,-2042l0 1748zm-27 -7045c0,1659 227,2858 678,3598 740,1208 1739,1815 3001,1815 1030,0 1917,-446 2662,-1338 749,-892 1124,-2220 1124,-3986 0,-1810 -357,-3143 -1075,-4004 -718,-861 -1587,-1293 -2604,-1293 -1030,0 -1917,446 -2662,1338 -749,892 -1124,2180 -1124,3870z"/>
   <path id="10" fill="white" fill-rule="nonzero" d="M-672005 292931l0 -13884 2113 0 0 2127c539,-985 1039,-1636 1498,-1948 459,-317 963,-473 1511,-473 794,0 1601,250 2421,745l-838 2171c-571,-321 -1141,-482 -1712,-482 -513,0 -972,156 -1378,464 -406,308 -696,736 -869,1284 -263,834 -392,1748 -392,2742l0 7254 -2354 0z"/>
   <path id="11" fill="white" fill-rule="nonzero" d="M-654001 291192c-874,745 -1717,1266 -2524,1574 -807,308 -1672,459 -2599,459 -1525,0 -2697,-370 -3518,-1115 -820,-740 -1231,-1690 -1231,-2845 0,-678 156,-1297 464,-1859 312,-562 718,-1008 1217,-1347 504,-339 1066,-597 1694,-771 464,-120 1164,-236 2096,-352 1899,-223 3304,-495 4200,-807 9,-321 13,-526 13,-611 0,-954 -223,-1627 -669,-2020 -602,-531 -1498,-794 -2684,-794 -1110,0 -1931,196 -2457,584 -531,388 -918,1075 -1173,2064l-2301 -321c210,-985 553,-1783 1034,-2390 482,-606 1177,-1070 2087,-1400 905,-325 1962,-490 3157,-490 1186,0 2154,138 2898,419 740,281 1289,629 1636,1052 348,424 593,959 736,1605 76,401 116,1124 116,2162l0 3121c0,2180 49,3558 147,4142 94,584 290,1141 575,1676l-2461 0c-236,-495 -388,-1075 -455,-1739zm-187 -5217c-856,348 -2140,642 -3852,883 -972,138 -1659,294 -2060,468 -401,174 -709,428 -927,758 -218,334 -330,704 -330,1115 0,620 236,1141 713,1556 477,415 1173,624 2087,624 905,0 1712,-196 2421,-593 704,-392 1226,-932 1556,-1614 254,-531 379,-1311 379,-2341l13 -856z"/>
   <polygon id="12" fill="white" fill-rule="nonzero" points="-648245,292931 -648245,273777 -645891,273777 -645891,292931 "/>
   <path id="13" fill="white" fill-rule="nonzero" d="M-625854 292931l0 -1761c-878,1369 -2171,2055 -3879,2055 -1106,0 -2122,-303 -3045,-914 -927,-606 -1645,-1458 -2158,-2546 -508,-1092 -762,-2345 -762,-3763 0,-1382 232,-2635 691,-3763 464,-1124 1155,-1989 2078,-2586 918,-602 1953,-901 3090,-901 838,0 1583,178 2234,531 651,352 1182,816 1592,1382l0 -6889 2354 0 0 19154 -2194 0zm-7437 -6924c0,1775 375,3099 1128,3977 749,878 1636,1315 2657,1315 1030,0 1904,-419 2626,-1257 718,-838 1079,-2118 1079,-3839 0,-1890 -366,-3282 -1101,-4169 -731,-887 -1636,-1329 -2711,-1329 -1048,0 -1922,424 -2626,1275 -700,852 -1052,2194 -1052,4026z"/>
   <path id="14" fill="white" fill-rule="nonzero" d="M-610468 288436l2434 321c-379,1413 -1088,2515 -2122,3295 -1034,780 -2354,1173 -3964,1173 -2024,0 -3629,-624 -4815,-1873 -1186,-1244 -1779,-2996 -1779,-5248 0,-2327 597,-4138 1797,-5422 1199,-1289 2755,-1931 4668,-1931 1850,0 3362,629 4534,1890 1173,1262 1761,3036 1761,5324 0,138 -4,348 -13,624l-10339 0c89,1520 517,2689 1293,3496 771,807 1739,1213 2894,1213 861,0 1596,-227 2203,-682 611,-455 1092,-1182 1449,-2180zm-7704 -3772l7731 0c-103,-1168 -401,-2042 -887,-2626 -745,-905 -1717,-1360 -2907,-1360 -1079,0 -1984,361 -2720,1083 -731,722 -1137,1690 -1217,2903z"/>
   <path id="15" fill="white" fill-rule="nonzero" d="M-597386 292931l0 -19154 3799 0 4530 13559c419,1262 722,2207 914,2836 218,-696 562,-1721 1025,-3072l4610 -13322 3393 0 0 19154 -2434 0 0 -16024 -5591 16024 -2283 0 -5529 -16318 0 16318 -2434 0z"/>
   <path id="16" fill="white" fill-rule="nonzero" d="M-565873 288436l2434 321c-379,1413 -1088,2515 -2122,3295 -1034,780 -2354,1173 -3964,1173 -2024,0 -3629,-624 -4815,-1873 -1186,-1244 -1779,-2996 -1779,-5248 0,-2327 597,-4138 1797,-5422 1199,-1289 2755,-1931 4668,-1931 1850,0 3362,629 4534,1890 1173,1262 1761,3036 1761,5324 0,138 -4,348 -13,624l-10339 0c89,1520 517,2689 1293,3496 771,807 1739,1213 2894,1213 861,0 1596,-227 2203,-682 611,-455 1092,-1182 1449,-2180zm-7704 -3772l7731 0c-103,-1168 -401,-2042 -887,-2626 -745,-905 -1717,-1360 -2907,-1360 -1079,0 -1984,361 -2720,1083 -731,722 -1137,1690 -1217,2903z"/>
   <polygon id="17" fill="white" fill-rule="nonzero" points="-560518,292931 -560518,273777 -558164,273777 -558164,292931 "/>
   <polygon id="18" fill="white" fill-rule="nonzero" points="-554575,292931 -554575,273777 -552220,273777 -552220,292931 "/>
   <path id="19" fill="white" fill-rule="nonzero" d="M-549461 285989c0,-2564 713,-4463 2145,-5698 1190,-1025 2648,-1538 4365,-1538 1904,0 3464,624 4677,1873 1208,1244 1815,2969 1815,5168 0,1783 -268,3183 -803,4204 -535,1021 -1315,1815 -2341,2381 -1021,566 -2140,847 -3348,847 -1944,0 -3513,-620 -4713,-1864 -1199,-1244 -1797,-3036 -1797,-5373zm2408 4c0,1775 388,3103 1164,3982 780,883 1757,1324 2938,1324 1168,0 2140,-441 2920,-1329 776,-887 1164,-2238 1164,-4053 0,-1712 -392,-3010 -1173,-3888 -780,-883 -1752,-1324 -2911,-1324 -1182,0 -2158,437 -2938,1315 -776,878 -1164,2203 -1164,3973z"/>
   <polygon id="20" fill="white" fill-rule="nonzero" points="-525999,292931 -525999,273777 -523396,273777 -513346,288811 -513346,273777 -510911,273777 -510911,292931 -513515,292931 -523565,277896 -523565,292931 "/>
   <path id="21" fill="white" fill-rule="nonzero" d="M-497478 288436l2434 321c-379,1413 -1088,2515 -2122,3295 -1034,780 -2354,1173 -3964,1173 -2024,0 -3629,-624 -4815,-1873 -1186,-1244 -1779,-2996 -1779,-5248 0,-2327 597,-4138 1797,-5422 1199,-1289 2755,-1931 4668,-1931 1850,0 3362,629 4534,1890 1173,1262 1761,3036 1761,5324 0,138 -4,348 -13,624l-10339 0c89,1520 517,2689 1293,3496 771,807 1739,1213 2894,1213 861,0 1596,-227 2203,-682 611,-455 1092,-1182 1449,-2180zm-7704 -3772l7731 0c-103,-1168 -401,-2042 -887,-2626 -745,-905 -1717,-1360 -2907,-1360 -1079,0 -1984,361 -2720,1083 -731,722 -1137,1690 -1217,2903z"/>
   <path id="22" fill="white" fill-rule="nonzero" d="M-486960 290831l321 2078c-660,138 -1253,210 -1770,210 -852,0 -1511,-134 -1984,-406 -468,-272 -798,-624 -990,-1066 -192,-441 -285,-1369 -285,-2782l0 -7999 -1739 0 0 -1819 1739 0 0 -3433 2354 -1413 0 4846 2354 0 0 1819 -2354 0 0 8132c0,673 40,1106 125,1297 80,192 214,343 401,459 187,111 455,169 803,169 259,0 602,-31 1025,-94z"/>
   <path id="23" fill="white" fill-rule="nonzero" d="M-485520 285989c0,-2564 713,-4463 2145,-5698 1190,-1025 2648,-1538 4365,-1538 1904,0 3464,624 4677,1873 1208,1244 1815,2969 1815,5168 0,1783 -268,3183 -803,4204 -535,1021 -1315,1815 -2341,2381 -1021,566 -2140,847 -3348,847 -1944,0 -3513,-620 -4713,-1864 -1199,-1244 -1797,-3036 -1797,-5373zm2408 4c0,1775 388,3103 1164,3982 780,883 1757,1324 2938,1324 1168,0 2140,-441 2920,-1329 776,-887 1164,-2238 1164,-4053 0,-1712 -392,-3010 -1173,-3888 -780,-883 -1752,-1324 -2911,-1324 -1182,0 -2158,437 -2938,1315 -776,878 -1164,2203 -1164,3973z"/>
   <path id="24" fill="white" fill-rule="nonzero" d="M-469143 292931l0 -2675 2675 0 0 2675c0,985 -174,1783 -526,2390 -348,606 -905,1079 -1668,1409l-642 -1017c499,-218 865,-540 1097,-959 236,-424 370,-1030 397,-1824l-1333 0z"/>
   <path id="25" fill="white" fill-rule="nonzero" d="M-821043 310560l-2327 187c-210,-923 -508,-1596 -896,-2015 -638,-673 -1427,-1008 -2363,-1008 -754,0 -1422,210 -1997,629 -740,539 -1320,1324 -1752,2359 -428,1039 -651,2515 -669,4427 566,-861 1262,-1503 2082,-1917 820,-419 1676,-629 2577,-629 1569,0 2907,580 4013,1734 1101,1155 1654,2644 1654,4476 0,1204 -259,2318 -776,3353 -522,1034 -1231,1824 -2140,2372 -905,548 -1935,825 -3085,825 -1957,0 -3558,-722 -4797,-2162 -1235,-1440 -1855,-3817 -1855,-7125 0,-3701 687,-6394 2055,-8075 1195,-1462 2804,-2194 4833,-2194 1507,0 2747,424 3710,1266 963,843 1543,2006 1734,3496zm-9631 8266c0,811 174,1587 517,2327 343,740 825,1302 1436,1690 615,388 1266,584 1957,584 1003,0 1859,-401 2568,-1204 709,-803 1066,-1890 1066,-3268 0,-1324 -352,-2368 -1052,-3130 -700,-762 -1592,-1146 -2675,-1146 -1061,0 -1966,383 -2706,1146 -740,762 -1110,1761 -1110,3001z"/>
   <path id="26" fill="white" fill-rule="nonzero" d="M-809562 325033l-2354 0 0 -14990c-566,544 -1311,1083 -2229,1623 -918,539 -1748,945 -2479,1213l0 -2274c1315,-615 2466,-1364 3451,-2247 985,-878 1685,-1730 2096,-2559l1516 0 0 19234z"/>
   <path id="27" fill="white" fill-rule="nonzero" d="M-803511 315580c0,-2261 232,-4089 696,-5471 468,-1387 1159,-2452 2078,-3197 914,-745 2069,-1115 3460,-1115 1025,0 1926,205 2706,620 776,415 1418,1012 1917,1792 499,776 892,1725 1177,2845 290,1119 432,2631 432,4525 0,2247 -232,4066 -691,5448 -459,1387 -1150,2452 -2069,3201 -914,749 -2073,1124 -3473,1124 -1841,0 -3290,-655 -4343,-1971 -1262,-1605 -1890,-4204 -1890,-7803zm2408 9c0,3152 366,5248 1101,6282 736,1039 1645,1556 2724,1556 1079,0 1989,-522 2724,-1561 736,-1043 1101,-3134 1101,-6278 0,-3152 -366,-5248 -1101,-6282 -731,-1039 -1650,-1556 -2751,-1556 -1079,0 -1944,459 -2590,1373 -807,1164 -1208,3322 -1208,6465z"/>
   <polygon id="28" fill="white" fill-rule="nonzero" points="-782324,325354 -776760,305558 -774865,305558 -780429,325354 "/>
   <path id="29" fill="white" fill-rule="nonzero" d="M-766630 320886l2327 -375c129,932 495,1645 1092,2145 597,495 1436,745 2506,745 1083,0 1886,-218 2412,-660 522,-437 785,-954 785,-1547 0,-531 -236,-950 -704,-1253 -330,-210 -1132,-473 -2408,-798 -1721,-432 -2911,-807 -3580,-1124 -664,-321 -1168,-758 -1511,-1320 -343,-557 -517,-1177 -517,-1855 0,-620 143,-1190 424,-1717 285,-526 669,-963 1155,-1311 366,-268 865,-495 1494,-682 633,-187 1306,-281 2029,-281 1088,0 2042,156 2862,473 825,312 1431,740 1824,1275 388,539 660,1257 807,2158l-2301 321c-103,-722 -406,-1289 -905,-1694 -499,-406 -1204,-606 -2118,-606 -1075,0 -1846,178 -2305,535 -459,357 -691,776 -691,1253 0,303 94,580 285,825 192,250 490,459 901,624 236,89 923,290 2073,602 1659,441 2818,807 3478,1088 660,281 1177,696 1552,1231 379,539 566,1208 566,2011 0,780 -227,1516 -687,2207 -459,691 -1119,1226 -1980,1605 -865,379 -1841,566 -2929,566 -1801,0 -3179,-375 -4124,-1119 -945,-749 -1547,-1855 -1810,-3322z"/>
   <path id="30" fill="white" fill-rule="nonzero" d="M-743249 323294c-874,745 -1717,1266 -2524,1574 -807,308 -1672,459 -2599,459 -1525,0 -2697,-370 -3518,-1115 -820,-740 -1231,-1690 -1231,-2845 0,-678 156,-1297 464,-1859 312,-562 718,-1008 1217,-1347 504,-339 1066,-597 1694,-771 464,-120 1164,-236 2096,-352 1899,-223 3304,-495 4200,-807 9,-321 13,-526 13,-611 0,-954 -223,-1627 -669,-2020 -602,-531 -1498,-794 -2684,-794 -1110,0 -1931,196 -2457,584 -531,388 -918,1075 -1173,2064l-2301 -321c210,-985 553,-1783 1034,-2390 482,-606 1177,-1070 2087,-1400 905,-325 1962,-490 3157,-490 1186,0 2154,138 2898,419 740,281 1289,629 1636,1052 348,424 593,959 736,1605 76,401 116,1124 116,2162l0 3121c0,2180 49,3558 147,4142 94,584 290,1141 575,1676l-2461 0c-236,-495 -388,-1075 -455,-1739zm-187 -5217c-856,348 -2140,642 -3852,883 -972,138 -1659,294 -2060,468 -401,174 -709,428 -927,758 -218,334 -330,704 -330,1115 0,620 236,1141 713,1556 477,415 1173,624 2087,624 905,0 1712,-196 2421,-593 704,-392 1226,-932 1556,-1614 254,-531 379,-1311 379,-2341l13 -856z"/>
   <polygon id="31" fill="white" fill-rule="nonzero" points="-737493,325033 -737493,305879 -735139,305879 -735139,325033 "/>
   <path id="32" fill="white" fill-rule="nonzero" d="M-722427 323294c-874,745 -1717,1266 -2524,1574 -807,308 -1672,459 -2599,459 -1525,0 -2697,-370 -3518,-1115 -820,-740 -1231,-1690 -1231,-2845 0,-678 156,-1297 464,-1859 312,-562 718,-1008 1217,-1347 504,-339 1066,-597 1694,-771 464,-120 1164,-236 2096,-352 1899,-223 3304,-495 4200,-807 9,-321 13,-526 13,-611 0,-954 -223,-1627 -669,-2020 -602,-531 -1498,-794 -2684,-794 -1110,0 -1931,196 -2457,584 -531,388 -918,1075 -1173,2064l-2301 -321c210,-985 553,-1783 1034,-2390 482,-606 1177,-1070 2087,-1400 905,-325 1962,-490 3157,-490 1186,0 2154,138 2898,419 740,281 1289,629 1636,1052 348,424 593,959 736,1605 76,401 116,1124 116,2162l0 3121c0,2180 49,3558 147,4142 94,584 290,1141 575,1676l-2461 0c-236,-495 -388,-1075 -455,-1739zm-187 -5217c-856,348 -2140,642 -3852,883 -972,138 -1659,294 -2060,468 -401,174 -709,428 -927,758 -218,334 -330,704 -330,1115 0,620 236,1141 713,1556 477,415 1173,624 2087,624 905,0 1712,-196 2421,-593 704,-392 1226,-932 1556,-1614 254,-531 379,-1311 379,-2341l13 -856z"/>
   <path id="33" fill="white" fill-rule="nonzero" d="M-717554 320886l2327 -375c129,932 495,1645 1092,2145 597,495 1436,745 2506,745 1083,0 1886,-218 2412,-660 522,-437 785,-954 785,-1547 0,-531 -236,-950 -704,-1253 -330,-210 -1132,-473 -2408,-798 -1721,-432 -2911,-807 -3580,-1124 -664,-321 -1168,-758 -1511,-1320 -343,-557 -517,-1177 -517,-1855 0,-620 143,-1190 424,-1717 285,-526 669,-963 1155,-1311 366,-268 865,-495 1494,-682 633,-187 1306,-281 2029,-281 1088,0 2042,156 2862,473 825,312 1431,740 1824,1275 388,539 660,1257 807,2158l-2301 321c-103,-722 -406,-1289 -905,-1694 -499,-406 -1204,-606 -2118,-606 -1075,0 -1846,178 -2305,535 -459,357 -691,776 -691,1253 0,303 94,580 285,825 192,250 490,459 901,624 236,89 923,290 2073,602 1659,441 2818,807 3478,1088 660,281 1177,696 1552,1231 379,539 566,1208 566,2011 0,780 -227,1516 -687,2207 -459,691 -1119,1226 -1980,1605 -865,379 -1841,566 -2929,566 -1801,0 -3179,-375 -4124,-1119 -945,-749 -1547,-1855 -1810,-3322z"/>
   <path id="34" fill="white" fill-rule="nonzero" d="M-684119 322786l0 2247 -12680 0c-18,-566 76,-1110 276,-1636 325,-861 847,-1712 1565,-2546 718,-834 1743,-1797 3076,-2889 2073,-1708 3482,-3059 4218,-4057 740,-999 1110,-1944 1110,-2836 0,-932 -334,-1717 -1003,-2359 -669,-638 -1543,-959 -2617,-959 -1137,0 -2046,339 -2729,1017 -682,673 -1025,1610 -1034,2809l-2408 -241c165,-1801 789,-3175 1868,-4120 1083,-945 2532,-1418 4356,-1418 1837,0 3295,508 4365,1529 1075,1021 1610,2287 1610,3794 0,767 -156,1520 -473,2261 -312,745 -834,1525 -1561,2345 -731,816 -1939,1944 -3625,3371 -1413,1186 -2323,1989 -2724,2412 -401,424 -731,847 -994,1275l9403 0z"/>
   <path id="35" fill="white" fill-rule="nonzero" d="M-681573 315580c0,-2261 232,-4089 696,-5471 468,-1387 1159,-2452 2078,-3197 914,-745 2069,-1115 3460,-1115 1025,0 1926,205 2706,620 776,415 1418,1012 1917,1792 499,776 892,1725 1177,2845 290,1119 432,2631 432,4525 0,2247 -232,4066 -691,5448 -459,1387 -1150,2452 -2069,3201 -914,749 -2073,1124 -3473,1124 -1841,0 -3290,-655 -4343,-1971 -1262,-1605 -1890,-4204 -1890,-7803zm2408 9c0,3152 366,5248 1101,6282 736,1039 1645,1556 2724,1556 1079,0 1989,-522 2724,-1561 736,-1043 1101,-3134 1101,-6278 0,-3152 -366,-5248 -1101,-6282 -731,-1039 -1650,-1556 -2751,-1556 -1079,0 -1944,459 -2590,1373 -807,1164 -1208,3322 -1208,6465z"/>
   <path id="36" fill="white" fill-rule="nonzero" d="M-657867 325033l-2354 0 0 -14990c-566,544 -1311,1083 -2229,1623 -918,539 -1748,945 -2479,1213l0 -2274c1315,-615 2466,-1364 3451,-2247 985,-878 1685,-1730 2096,-2559l1516 0 0 19234z"/>
   <path id="37" fill="white" fill-rule="nonzero" d="M-634673 323294c-874,745 -1717,1266 -2524,1574 -807,308 -1672,459 -2599,459 -1525,0 -2697,-370 -3518,-1115 -820,-740 -1231,-1690 -1231,-2845 0,-678 156,-1297 464,-1859 312,-562 718,-1008 1217,-1347 504,-339 1066,-597 1694,-771 464,-120 1164,-236 2096,-352 1899,-223 3304,-495 4200,-807 9,-321 13,-526 13,-611 0,-954 -223,-1627 -669,-2020 -602,-531 -1498,-794 -2684,-794 -1110,0 -1931,196 -2457,584 -531,388 -918,1075 -1173,2064l-2301 -321c210,-985 553,-1783 1034,-2390 482,-606 1177,-1070 2087,-1400 905,-325 1962,-490 3157,-490 1186,0 2154,138 2898,419 740,281 1289,629 1636,1052 348,424 593,959 736,1605 76,401 116,1124 116,2162l0 3121c0,2180 49,3558 147,4142 94,584 290,1141 575,1676l-2461 0c-236,-495 -388,-1075 -455,-1739zm-187 -5217c-856,348 -2140,642 -3852,883 -972,138 -1659,294 -2060,468 -401,174 -709,428 -927,758 -218,334 -330,704 -330,1115 0,620 236,1141 713,1556 477,415 1173,624 2087,624 905,0 1712,-196 2421,-593 704,-392 1226,-932 1556,-1614 254,-531 379,-1311 379,-2341l13 -856z"/>
   <path id="38" fill="white" fill-rule="nonzero" d="M-609741 322786l0 2247 -12680 0c-18,-566 76,-1110 276,-1636 325,-861 847,-1712 1565,-2546 718,-834 1743,-1797 3076,-2889 2073,-1708 3482,-3059 4218,-4057 740,-999 1110,-1944 1110,-2836 0,-932 -334,-1717 -1003,-2359 -669,-638 -1543,-959 -2617,-959 -1137,0 -2046,339 -2729,1017 -682,673 -1025,1610 -1034,2809l-2408 -241c165,-1801 789,-3175 1868,-4120 1083,-945 2532,-1418 4356,-1418 1837,0 3295,508 4365,1529 1075,1021 1610,2287 1610,3794 0,767 -156,1520 -473,2261 -312,745 -834,1525 -1561,2345 -731,816 -1939,1944 -3625,3371 -1413,1186 -2323,1989 -2724,2412 -401,424 -731,847 -994,1275l9403 0z"/>
   <path id="39" fill="white" fill-rule="nonzero" d="M-607195 315580c0,-2261 232,-4089 696,-5471 468,-1387 1159,-2452 2078,-3197 914,-745 2069,-1115 3460,-1115 1025,0 1926,205 2706,620 776,415 1418,1012 1917,1792 499,776 892,1725 1177,2845 290,1119 432,2631 432,4525 0,2247 -232,4066 -691,5448 -459,1387 -1150,2452 -2069,3201 -914,749 -2073,1124 -3473,1124 -1841,0 -3290,-655 -4343,-1971 -1262,-1605 -1890,-4204 -1890,-7803zm2408 9c0,3152 366,5248 1101,6282 736,1039 1645,1556 2724,1556 1079,0 1989,-522 2724,-1561 736,-1043 1101,-3134 1101,-6278 0,-3152 -366,-5248 -1101,-6282 -731,-1039 -1650,-1556 -2751,-1556 -1079,0 -1944,459 -2590,1373 -807,1164 -1208,3322 -1208,6465z"/>
   <path id="40" fill="white" fill-rule="nonzero" d="M-592183 308366l0 -2247 12386 0 0 1819c-1217,1297 -2430,3023 -3625,5176 -1199,2154 -2122,4369 -2778,6648 -468,1601 -771,3362 -901,5270l-2408 0c27,-1507 321,-3331 887,-5466 566,-2140 1373,-4200 2430,-6184 1057,-1984 2180,-3656 3371,-5016l-9363 0z"/>
   <path id="41" fill="white" fill-rule="nonzero" d="M-569177 325033l0 -19154 7187 0c1462,0 2635,192 3522,580 883,388 1574,985 2073,1792 504,803 754,1645 754,2528 0,816 -223,1587 -664,2310 -441,722 -1110,1306 -2006,1752 1159,339 2051,918 2671,1739 624,816 936,1783 936,2898 0,901 -192,1734 -571,2506 -379,771 -847,1364 -1404,1783 -557,415 -1257,731 -2096,945 -843,214 -1873,321 -3094,321l-7308 0zm2541 -11102l4142 0c1124,0 1931,-76 2417,-223 646,-192 1132,-513 1458,-959 325,-446 490,-1003 490,-1676 0,-638 -152,-1199 -459,-1681 -303,-486 -740,-820 -1306,-999 -566,-178 -1538,-268 -2911,-268l-3830 0 0 5805zm0 8855l4771 0c820,0 1396,-31 1730,-94 580,-103 1070,-276 1462,-522 392,-245 713,-602 968,-1070 254,-468 379,-1008 379,-1618 0,-718 -183,-1338 -553,-1868 -366,-531 -874,-901 -1525,-1115 -646,-214 -1583,-321 -2800,-321l-4432 0 0 6608z"/>
   <path id="42" fill="white" fill-rule="nonzero" d="M-542452 323294c-874,745 -1717,1266 -2524,1574 -807,308 -1672,459 -2599,459 -1525,0 -2697,-370 -3518,-1115 -820,-740 -1231,-1690 -1231,-2845 0,-678 156,-1297 464,-1859 312,-562 718,-1008 1217,-1347 504,-339 1066,-597 1694,-771 464,-120 1164,-236 2096,-352 1899,-223 3304,-495 4200,-807 9,-321 13,-526 13,-611 0,-954 -223,-1627 -669,-2020 -602,-531 -1498,-794 -2684,-794 -1110,0 -1931,196 -2457,584 -531,388 -918,1075 -1173,2064l-2301 -321c210,-985 553,-1783 1034,-2390 482,-606 1177,-1070 2087,-1400 905,-325 1962,-490 3157,-490 1186,0 2154,138 2898,419 740,281 1289,629 1636,1052 348,424 593,959 736,1605 76,401 116,1124 116,2162l0 3121c0,2180 49,3558 147,4142 94,584 290,1141 575,1676l-2461 0c-236,-495 -388,-1075 -455,-1739zm-187 -5217c-856,348 -2140,642 -3852,883 -972,138 -1659,294 -2060,468 -401,174 -709,428 -927,758 -218,334 -330,704 -330,1115 0,620 236,1141 713,1556 477,415 1173,624 2087,624 905,0 1712,-196 2421,-593 704,-392 1226,-932 1556,-1614 254,-531 379,-1311 379,-2341l13 -856z"/>
   <path id="43" fill="white" fill-rule="nonzero" d="M-536669 325033l0 -13884 2113 0 0 2127c539,-985 1039,-1636 1498,-1948 459,-317 963,-473 1511,-473 794,0 1601,250 2421,745l-838 2171c-571,-321 -1141,-482 -1712,-482 -513,0 -972,156 -1378,464 -406,308 -696,736 -869,1284 -263,834 -392,1748 -392,2742l0 7254 -2354 0z"/>
   <path id="44" fill="white" fill-rule="nonzero" d="M-527761 325033l0 -13884 2113 0 0 2127c539,-985 1039,-1636 1498,-1948 459,-317 963,-473 1511,-473 794,0 1601,250 2421,745l-838 2171c-571,-321 -1141,-482 -1712,-482 -513,0 -972,156 -1378,464 -406,308 -696,736 -869,1284 -263,834 -392,1748 -392,2742l0 7254 -2354 0z"/>
   <path id="45" fill="white" fill-rule="nonzero" d="M-509757 323294c-874,745 -1717,1266 -2524,1574 -807,308 -1672,459 -2599,459 -1525,0 -2697,-370 -3518,-1115 -820,-740 -1231,-1690 -1231,-2845 0,-678 156,-1297 464,-1859 312,-562 718,-1008 1217,-1347 504,-339 1066,-597 1694,-771 464,-120 1164,-236 2096,-352 1899,-223 3304,-495 4200,-807 9,-321 13,-526 13,-611 0,-954 -223,-1627 -669,-2020 -602,-531 -1498,-794 -2684,-794 -1110,0 -1931,196 -2457,584 -531,388 -918,1075 -1173,2064l-2301 -321c210,-985 553,-1783 1034,-2390 482,-606 1177,-1070 2087,-1400 905,-325 1962,-490 3157,-490 1186,0 2154,138 2898,419 740,281 1289,629 1636,1052 348,424 593,959 736,1605 76,401 116,1124 116,2162l0 3121c0,2180 49,3558 147,4142 94,584 290,1141 575,1676l-2461 0c-236,-495 -388,-1075 -455,-1739zm-187 -5217c-856,348 -2140,642 -3852,883 -972,138 -1659,294 -2060,468 -401,174 -709,428 -927,758 -218,334 -330,704 -330,1115 0,620 236,1141 713,1556 477,415 1173,624 2087,624 905,0 1712,-196 2421,-593 704,-392 1226,-932 1556,-1614 254,-531 379,-1311 379,-2341l13 -856z"/>
   <path id="46" fill="white" fill-rule="nonzero" d="M-487553 325033l0 -1761c-878,1369 -2171,2055 -3879,2055 -1106,0 -2122,-303 -3045,-914 -927,-606 -1645,-1458 -2158,-2546 -508,-1092 -762,-2345 -762,-3763 0,-1382 232,-2635 691,-3763 464,-1124 1155,-1989 2078,-2586 918,-602 1953,-901 3090,-901 838,0 1583,178 2234,531 651,352 1182,816 1592,1382l0 -6889 2354 0 0 19154 -2194 0zm-7437 -6924c0,1775 375,3099 1128,3977 749,878 1636,1315 2657,1315 1030,0 1904,-419 2626,-1257 718,-838 1079,-2118 1079,-3839 0,-1890 -366,-3282 -1101,-4169 -731,-887 -1636,-1329 -2711,-1329 -1048,0 -1922,424 -2626,1275 -700,852 -1052,2194 -1052,4026z"/>
   <path id="47" fill="white" fill-rule="nonzero" d="M-472568 323294c-874,745 -1717,1266 -2524,1574 -807,308 -1672,459 -2599,459 -1525,0 -2697,-370 -3518,-1115 -820,-740 -1231,-1690 -1231,-2845 0,-678 156,-1297 464,-1859 312,-562 718,-1008 1217,-1347 504,-339 1066,-597 1694,-771 464,-120 1164,-236 2096,-352 1899,-223 3304,-495 4200,-807 9,-321 13,-526 13,-611 0,-954 -223,-1627 -669,-2020 -602,-531 -1498,-794 -2684,-794 -1110,0 -1931,196 -2457,584 -531,388 -918,1075 -1173,2064l-2301 -321c210,-985 553,-1783 1034,-2390 482,-606 1177,-1070 2087,-1400 905,-325 1962,-490 3157,-490 1186,0 2154,138 2898,419 740,281 1289,629 1636,1052 348,424 593,959 736,1605 76,401 116,1124 116,2162l0 3121c0,2180 49,3558 147,4142 94,584 290,1141 575,1676l-2461 0c-236,-495 -388,-1075 -455,-1739zm-187 -5217c-856,348 -2140,642 -3852,883 -972,138 -1659,294 -2060,468 -401,174 -709,428 -927,758 -218,334 -330,704 -330,1115 0,620 236,1141 713,1556 477,415 1173,624 2087,624 905,0 1712,-196 2421,-593 704,-392 1226,-932 1556,-1614 254,-531 379,-1311 379,-2341l13 -856z"/>
   <polygon id="48" fill="white" fill-rule="nonzero" points="-827829,357135 -827829,340228 -834142,340228 -834142,337980 -818974,337980 -818974,340228 -825287,340228 -825287,357135 "/>
   <path id="49" fill="white" fill-rule="nonzero" d="M-817645 340656l0 -2675 2354 0 0 2675 -2354 0zm0 16479l0 -13884 2354 0 0 13884 -2354 0z"/>
   <path id="50" fill="white" fill-rule="nonzero" d="M-811715 340709l0 -2729 2354 0 0 2729 -2354 0zm-2978 21794l432 -1993c473,120 843,183 1115,183 482,0 838,-161 1075,-477 236,-317 357,-1115 357,-2385l0 -14580 2354 0 0 14629c0,1708 -223,2898 -669,3567 -566,869 -1507,1306 -2822,1306 -638,0 -1248,-85 -1841,-250z"/>
   <path id="51" fill="white" fill-rule="nonzero" d="M-796690 357135l0 -2064c-1079,1574 -2541,2359 -4392,2359 -816,0 -1578,-156 -2287,-468 -709,-317 -1235,-709 -1578,-1182 -343,-477 -584,-1057 -722,-1743 -94,-464 -143,-1195 -143,-2194l0 -8592 2354 0 0 7682c0,1226 49,2055 143,2479 147,620 459,1101 941,1454 477,352 1066,531 1770,531 704,0 1364,-178 1980,-539 615,-361 1052,-856 1311,-1476 254,-620 383,-1525 383,-2706l0 -7424 2354 0 0 13884 -2113 0z"/>
   <path id="52" fill="white" fill-rule="nonzero" d="M-781812 352052l2301 321c-254,1583 -896,2818 -1935,3714 -1039,896 -2318,1342 -3830,1342 -1895,0 -3420,-620 -4570,-1859 -1155,-1239 -1730,-3014 -1730,-5324 0,-1498 250,-2804 745,-3928 495,-1119 1248,-1962 2265,-2519 1012,-562 2113,-843 3308,-843 1503,0 2738,379 3692,1141 959,762 1574,1846 1841,3246l-2274 348c-218,-932 -602,-1632 -1159,-2104 -553,-468 -1222,-704 -2006,-704 -1186,0 -2149,424 -2894,1271 -740,852 -1110,2189 -1110,4026 0,1864 357,3215 1070,4057 718,843 1650,1266 2796,1266 927,0 1699,-281 2314,-847 620,-562 1012,-1431 1177,-2604z"/>
   <path id="53" fill="white" fill-rule="nonzero" d="M-768436 355396c-874,745 -1717,1266 -2524,1574 -807,308 -1672,459 -2599,459 -1525,0 -2697,-370 -3518,-1115 -820,-740 -1231,-1690 -1231,-2845 0,-678 156,-1297 464,-1859 312,-562 718,-1008 1217,-1347 504,-339 1066,-597 1694,-771 464,-120 1164,-236 2096,-352 1899,-223 3304,-495 4200,-807 9,-321 13,-526 13,-611 0,-954 -223,-1627 -669,-2020 -602,-531 -1498,-794 -2684,-794 -1110,0 -1931,196 -2457,584 -531,388 -918,1075 -1173,2064l-2301 -321c210,-985 553,-1783 1034,-2390 482,-606 1177,-1070 2087,-1400 905,-325 1962,-490 3157,-490 1186,0 2154,138 2898,419 740,281 1289,629 1636,1052 348,424 593,959 736,1605 76,401 116,1124 116,2162l0 3121c0,2180 49,3558 147,4142 94,584 290,1141 575,1676l-2461 0c-236,-495 -388,-1075 -455,-1739zm-187 -5217c-856,348 -2140,642 -3852,883 -972,138 -1659,294 -2060,468 -401,174 -709,428 -927,758 -218,334 -330,704 -330,1115 0,620 236,1141 713,1556 477,415 1173,624 2087,624 905,0 1712,-196 2421,-593 704,-392 1226,-932 1556,-1614 254,-531 379,-1311 379,-2341l13 -856z"/>
   <polygon id="54" fill="white" fill-rule="nonzero" points="-756130,351383 -756130,349029 -748854,349029 -748854,351383 "/>
   <path id="55" fill="white" fill-rule="nonzero" d="M-738505 357135l0 -19154 8489 0c1708,0 3005,174 3892,517 887,343 1596,950 2127,1819 531,869 794,1832 794,2885 0,1360 -441,2506 -1320,3438 -878,932 -2234,1520 -4071,1775 673,321 1182,642 1529,954 740,678 1440,1529 2096,2550l3313 5217 -3166 0 -2532 -3986c-736,-1155 -1347,-2033 -1824,-2644 -482,-611 -910,-1034 -1289,-1280 -375,-241 -762,-410 -1155,-508 -285,-58 -754,-89 -1409,-89l-2934 0 0 8507 -2541 0zm2541 -10701l5439 0c1159,0 2060,-120 2711,-361 651,-236 1146,-620 1480,-1150 339,-526 508,-1097 508,-1717 0,-905 -325,-1654 -981,-2238 -655,-584 -1690,-874 -3103,-874l-6055 0 0 6340z"/>
   <path id="56" fill="white" fill-rule="nonzero" d="M-719534 340656l0 -2675 2354 0 0 2675 -2354 0zm0 16479l0 -13884 2354 0 0 13884 -2354 0z"/>
   <path id="57" fill="white" fill-rule="nonzero" d="M-714473 350193c0,-2564 713,-4463 2145,-5698 1190,-1025 2648,-1538 4365,-1538 1904,0 3464,624 4677,1873 1208,1244 1815,2969 1815,5168 0,1783 -268,3183 -803,4204 -535,1021 -1315,1815 -2341,2381 -1021,566 -2140,847 -3348,847 -1944,0 -3513,-620 -4713,-1864 -1199,-1244 -1797,-3036 -1797,-5373zm2408 4c0,1775 388,3103 1164,3982 780,883 1757,1324 2938,1324 1168,0 2140,-441 2920,-1329 776,-887 1164,-2238 1164,-4053 0,-1712 -392,-3010 -1173,-3888 -780,-883 -1752,-1324 -2911,-1324 -1182,0 -2158,437 -2938,1315 -776,878 -1164,2203 -1164,3973z"/>
   <path id="58" fill="white" fill-rule="nonzero" d="M-682318 357135l0 -1761c-878,1369 -2171,2055 -3879,2055 -1106,0 -2122,-303 -3045,-914 -927,-606 -1645,-1458 -2158,-2546 -508,-1092 -762,-2345 -762,-3763 0,-1382 232,-2635 691,-3763 464,-1124 1155,-1989 2078,-2586 918,-602 1953,-901 3090,-901 838,0 1583,178 2234,531 651,352 1182,816 1592,1382l0 -6889 2354 0 0 19154 -2194 0zm-7437 -6924c0,1775 375,3099 1128,3977 749,878 1636,1315 2657,1315 1030,0 1904,-419 2626,-1257 718,-838 1079,-2118 1079,-3839 0,-1890 -366,-3282 -1101,-4169 -731,-887 -1636,-1329 -2711,-1329 -1048,0 -1922,424 -2626,1275 -700,852 -1052,2194 -1052,4026z"/>
   <path id="59" fill="white" fill-rule="nonzero" d="M-666931 352640l2434 321c-379,1413 -1088,2515 -2122,3295 -1034,780 -2354,1173 -3964,1173 -2024,0 -3629,-624 -4815,-1873 -1186,-1244 -1779,-2996 -1779,-5248 0,-2327 597,-4138 1797,-5422 1199,-1289 2755,-1931 4668,-1931 1850,0 3362,629 4534,1890 1173,1262 1761,3036 1761,5324 0,138 -4,348 -13,624l-10339 0c89,1520 517,2689 1293,3496 771,807 1739,1213 2894,1213 861,0 1596,-227 2203,-682 611,-455 1092,-1182 1449,-2180zm-7704 -3772l7731 0c-103,-1168 -401,-2042 -887,-2626 -745,-905 -1717,-1360 -2907,-1360 -1079,0 -1984,361 -2720,1083 -731,722 -1137,1690 -1217,2903z"/>
   <path id="60" fill="white" fill-rule="nonzero" d="M-655080 351695l2274 -312c62,1467 334,2470 820,3014 486,539 1164,811 2024,811 633,0 1182,-147 1641,-437 459,-294 780,-691 954,-1190 174,-499 259,-1302 259,-2399l0 -13202 2541 0 0 13050c0,1601 -192,2840 -580,3723 -388,878 -999,1547 -1841,2011 -838,459 -1824,691 -2952,691 -1681,0 -2965,-482 -3857,-1449 -892,-968 -1320,-2403 -1284,-4311z"/>
   <path id="61" fill="white" fill-rule="nonzero" d="M-631646 355396c-874,745 -1717,1266 -2524,1574 -807,308 -1672,459 -2599,459 -1525,0 -2697,-370 -3518,-1115 -820,-740 -1231,-1690 -1231,-2845 0,-678 156,-1297 464,-1859 312,-562 718,-1008 1217,-1347 504,-339 1066,-597 1694,-771 464,-120 1164,-236 2096,-352 1899,-223 3304,-495 4200,-807 9,-321 13,-526 13,-611 0,-954 -223,-1627 -669,-2020 -602,-531 -1498,-794 -2684,-794 -1110,0 -1931,196 -2457,584 -531,388 -918,1075 -1173,2064l-2301 -321c210,-985 553,-1783 1034,-2390 482,-606 1177,-1070 2087,-1400 905,-325 1962,-490 3157,-490 1186,0 2154,138 2898,419 740,281 1289,629 1636,1052 348,424 593,959 736,1605 76,401 116,1124 116,2162l0 3121c0,2180 49,3558 147,4142 94,584 290,1141 575,1676l-2461 0c-236,-495 -388,-1075 -455,-1739zm-187 -5217c-856,348 -2140,642 -3852,883 -972,138 -1659,294 -2060,468 -401,174 -709,428 -927,758 -218,334 -330,704 -330,1115 0,620 236,1141 713,1556 477,415 1173,624 2087,624 905,0 1712,-196 2421,-593 704,-392 1226,-932 1556,-1614 254,-531 379,-1311 379,-2341l13 -856z"/>
   <path id="62" fill="white" fill-rule="nonzero" d="M-625836 357135l0 -13884 2113 0 0 1971c1017,-1511 2488,-2265 4410,-2265 838,0 1605,152 2305,450 700,299 1226,696 1574,1182 348,486 593,1066 731,1734 85,437 129,1199 129,2287l0 8525 -2354 0 0 -8436c0,-959 -89,-1676 -272,-2149 -183,-473 -508,-852 -972,-1137 -464,-281 -1012,-424 -1636,-424 -999,0 -1859,317 -2586,954 -727,633 -1088,1841 -1088,3616l0 7575 -2354 0z"/>
   <path id="63" fill="white" fill-rule="nonzero" d="M-601488 352640l2434 321c-379,1413 -1088,2515 -2122,3295 -1034,780 -2354,1173 -3964,1173 -2024,0 -3629,-624 -4815,-1873 -1186,-1244 -1779,-2996 -1779,-5248 0,-2327 597,-4138 1797,-5422 1199,-1289 2755,-1931 4668,-1931 1850,0 3362,629 4534,1890 1173,1262 1761,3036 1761,5324 0,138 -4,348 -13,624l-10339 0c89,1520 517,2689 1293,3496 771,807 1739,1213 2894,1213 861,0 1596,-227 2203,-682 611,-455 1092,-1182 1449,-2180zm-7704 -3772l7731 0c-103,-1168 -401,-2042 -887,-2626 -745,-905 -1717,-1360 -2907,-1360 -1079,0 -1984,361 -2720,1083 -731,722 -1137,1690 -1217,2903z"/>
   <path id="64" fill="white" fill-rule="nonzero" d="M-596080 340656l0 -2675 2354 0 0 2675 -2354 0zm0 16479l0 -13884 2354 0 0 13884 -2354 0z"/>
   <path id="65" fill="white" fill-rule="nonzero" d="M-590163 357135l0 -13884 2113 0 0 2127c539,-985 1039,-1636 1498,-1948 459,-317 963,-473 1511,-473 794,0 1601,250 2421,745l-838 2171c-571,-321 -1141,-482 -1712,-482 -513,0 -972,156 -1378,464 -406,308 -696,736 -869,1284 -263,834 -392,1748 -392,2742l0 7254 -2354 0z"/>
   <path id="66" fill="white" fill-rule="nonzero" d="M-582111 350193c0,-2564 713,-4463 2145,-5698 1190,-1025 2648,-1538 4365,-1538 1904,0 3464,624 4677,1873 1208,1244 1815,2969 1815,5168 0,1783 -268,3183 -803,4204 -535,1021 -1315,1815 -2341,2381 -1021,566 -2140,847 -3348,847 -1944,0 -3513,-620 -4713,-1864 -1199,-1244 -1797,-3036 -1797,-5373zm2408 4c0,1775 388,3103 1164,3982 780,883 1757,1324 2938,1324 1168,0 2140,-441 2920,-1329 776,-887 1164,-2238 1164,-4053 0,-1712 -392,-3010 -1173,-3888 -780,-883 -1752,-1324 -2911,-1324 -1182,0 -2158,437 -2938,1315 -776,878 -1164,2203 -1164,3973z"/>
   <polygon id="67" fill="white" fill-rule="nonzero" points="-559854,351383 -559854,349029 -552577,349029 -552577,351383 "/>
   <path id="68" fill="white" fill-rule="nonzero" d="M-542229 357135l0 -19154 8489 0c1708,0 3005,174 3892,517 887,343 1596,950 2127,1819 531,869 794,1832 794,2885 0,1360 -441,2506 -1320,3438 -878,932 -2234,1520 -4071,1775 673,321 1182,642 1529,954 740,678 1440,1529 2096,2550l3313 5217 -3166 0 -2532 -3986c-736,-1155 -1347,-2033 -1824,-2644 -482,-611 -910,-1034 -1289,-1280 -375,-241 -762,-410 -1155,-508 -285,-58 -754,-89 -1409,-89l-2934 0 0 8507 -2541 0zm2541 -10701l5439 0c1159,0 2060,-120 2711,-361 651,-236 1146,-620 1480,-1150 339,-526 508,-1097 508,-1717 0,-905 -325,-1654 -981,-2238 -655,-584 -1690,-874 -3103,-874l-6055 0 0 6340z"/>
   <path id="69" fill="white" fill-rule="nonzero" d="M-524247 351695l2274 -312c62,1467 334,2470 820,3014 486,539 1164,811 2024,811 633,0 1182,-147 1641,-437 459,-294 780,-691 954,-1190 174,-499 259,-1302 259,-2399l0 -13202 2541 0 0 13050c0,1601 -192,2840 -580,3723 -388,878 -999,1547 -1841,2011 -838,459 -1824,691 -2952,691 -1681,0 -2965,-482 -3857,-1449 -892,-968 -1320,-2403 -1284,-4311z"/>
  </g>
  <g id="_2176233490464">
   <path fill="white" d="M-1607441 336585c27,2167 -1739,3959 -3906,3986l-47324 401c-2167,27 -3959,-1739 -3986,-3906l-161 -17603c-27,-2167 1739,-3959 3906,-3986l47324 -401c2167,-27 3959,1739 3986,3906l161 17603z"/>
   <path fill="white" d="M-1672260 303681c2140,-375 3879,-2434 3852,-4601l-241 -26725c-27,-2167 -1819,-3932 -3986,-3906l-47324 401c-2167,27 -3932,1819 -3906,3986l321 38763c27,2167 1739,3478 3825,2889l47457 -10808z"/>
   <path fill="white" d="M-1754066 326580c8293,-3665 21428,-8347 21428,-8347 2033,-722 3692,-3103 3665,-5270l-134 -16506c-27,-2167 -1819,-3932 -3986,-3906l-47324 401c-2167,27 -3932,1819 -3906,3986l348 41197c27,2167 1578,3076 3478,2006 0,-27 15516,-8775 26431,-13563z"/>
  </g>
  <g id="_2176088645632">
   <g>
    <rect fill="none" x="-1307609" y="274869" width="268399" height="85124"/>
    <polygon fill="white" fill-rule="nonzero" points="-1300894,291622 -1300894,286378 -1306110,286378 -1306110,284185 -1300894,284185 -1300894,278968 -1298673,278968 -1298673,284185 -1293457,284185 -1293457,286378 -1298673,286378 -1298673,291622 "/>
    <path id="1" fill="white" fill-rule="nonzero" d="M-1290862 289696l2461 -187c183,1199 606,2100 1266,2706 660,602 1467,905 2417,905 1146,0 2104,-428 2885,-1280 776,-856 1164,-1989 1164,-3397 0,-1342 -370,-2399 -1115,-3175 -745,-776 -1730,-1164 -2956,-1164 -762,0 -1445,174 -2051,522 -602,348 -1075,798 -1422,1351l-2220 -321 1846 -9845 9497 0 0 2247 -7620 0 -1021 5168c1146,-807 2350,-1208 3607,-1208 1668,0 3076,580 4222,1739 1146,1159 1721,2648 1721,4468 0,1734 -504,3232 -1511,4494 -1226,1552 -2903,2327 -5025,2327 -1739,0 -3157,-490 -4258,-1467 -1101,-976 -1730,-2269 -1886,-3883z"/>
    <path id="2" fill="white" fill-rule="nonzero" d="M-1275984 289696l2461 -187c183,1199 606,2100 1266,2706 660,602 1467,905 2417,905 1146,0 2104,-428 2885,-1280 776,-856 1164,-1989 1164,-3397 0,-1342 -370,-2399 -1115,-3175 -745,-776 -1730,-1164 -2956,-1164 -762,0 -1445,174 -2051,522 -602,348 -1075,798 -1422,1351l-2220 -321 1846 -9845 9497 0 0 2247 -7620 0 -1021 5168c1146,-807 2350,-1208 3607,-1208 1668,0 3076,580 4222,1739 1146,1159 1721,2648 1721,4468 0,1734 -504,3232 -1511,4494 -1226,1552 -2903,2327 -5025,2327 -1739,0 -3157,-490 -4258,-1467 -1101,-976 -1730,-2269 -1886,-3883z"/>
    <path id="3" fill="white" fill-rule="nonzero" d="M-1241340 292478l0 2247 -12680 0c-18,-566 76,-1110 276,-1636 325,-861 847,-1712 1565,-2546 718,-834 1743,-1797 3076,-2889 2073,-1708 3482,-3059 4218,-4057 740,-999 1110,-1944 1110,-2836 0,-932 -334,-1717 -1003,-2359 -669,-638 -1543,-959 -2617,-959 -1137,0 -2046,339 -2729,1017 -682,673 -1025,1610 -1034,2809l-2408 -241c165,-1801 789,-3175 1868,-4120 1083,-945 2532,-1418 4356,-1418 1837,0 3295,508 4365,1529 1075,1021 1610,2287 1610,3794 0,767 -156,1520 -473,2261 -312,745 -834,1525 -1561,2345 -731,816 -1939,1944 -3625,3371 -1413,1186 -2323,1989 -2724,2412 -401,424 -731,847 -994,1275l9403 0z"/>
    <path id="4" fill="white" fill-rule="nonzero" d="M-1229966 294725l-2354 0 0 -14990c-566,544 -1311,1083 -2229,1623 -918,539 -1748,945 -2479,1213l0 -2274c1315,-615 2466,-1364 3451,-2247 985,-878 1685,-1730 2096,-2559l1516 0 0 19234z"/>
    <path id="5" fill="white" fill-rule="nonzero" d="M-1216484 289642l2354 -321c272,1338 727,2301 1373,2889 647,589 1440,883 2381,883 1115,0 2055,-383 2813,-1150 758,-767 1137,-1717 1137,-2849 0,-1079 -352,-1971 -1061,-2675 -704,-700 -1601,-1052 -2693,-1052 -446,0 -999,89 -1663,263l263 -2060c156,18 285,27 379,27 1008,0 1908,-263 2715,-785 803,-522 1204,-1324 1204,-2408 0,-861 -294,-1574 -878,-2140 -584,-566 -1338,-847 -2261,-847 -918,0 -1681,290 -2292,869 -611,580 -1003,1449 -1177,2608l-2354 -428c290,-1578 941,-2804 1962,-3674 1017,-869 2287,-1302 3803,-1302 1043,0 2006,223 2885,673 883,446 1556,1057 2020,1828 468,776 700,1596 700,2466 0,825 -223,1574 -664,2252 -446,678 -1106,1217 -1975,1618 1132,259 2011,803 2639,1627 624,820 936,1855 936,3090 0,1672 -611,3094 -1828,4258 -1222,1164 -2764,1743 -4628,1743 -1681,0 -3076,-504 -4187,-1507 -1115,-1003 -1748,-2301 -1904,-3897z"/>
    <path id="6" fill="white" fill-rule="nonzero" d="M-1201605 289696l2461 -187c183,1199 606,2100 1266,2706 660,602 1467,905 2417,905 1146,0 2104,-428 2885,-1280 776,-856 1164,-1989 1164,-3397 0,-1342 -370,-2399 -1115,-3175 -745,-776 -1730,-1164 -2956,-1164 -762,0 -1445,174 -2051,522 -602,348 -1075,798 -1422,1351l-2220 -321 1846 -9845 9497 0 0 2247 -7620 0 -1021 5168c1146,-807 2350,-1208 3607,-1208 1668,0 3076,580 4222,1739 1146,1159 1721,2648 1721,4468 0,1734 -504,3232 -1511,4494 -1226,1552 -2903,2327 -5025,2327 -1739,0 -3157,-490 -4258,-1467 -1101,-976 -1730,-2269 -1886,-3883z"/>
    <path id="7" fill="white" fill-rule="nonzero" d="M-1179210 294725l0 -4575 -8320 0 0 -2167 8748 -12413 1926 0 0 12413 2595 0 0 2167 -2595 0 0 4575 -2354 0zm0 -6741l0 -8618 -6006 8618 6006 0z"/>
    <path id="8" fill="white" fill-rule="nonzero" d="M-1171715 278059l0 -2247 12386 0 0 1819c-1217,1297 -2430,3023 -3625,5176 -1199,2154 -2122,4369 -2778,6648 -468,1601 -771,3362 -901,5270l-2408 0c27,-1507 321,-3331 887,-5466 566,-2140 1373,-4200 2430,-6184 1057,-1984 2180,-3656 3371,-5016l-9363 0z"/>
    <polygon id="9" fill="white" fill-rule="nonzero" points="-1157264,288973 -1157264,286619 -1149988,286619 -1149988,288973 "/>
    <path id="10" fill="white" fill-rule="nonzero" d="M-1148062 285273c0,-2261 232,-4089 696,-5471 468,-1387 1159,-2452 2078,-3197 914,-745 2069,-1115 3460,-1115 1025,0 1926,205 2706,620 776,415 1418,1012 1917,1792 499,776 892,1725 1177,2845 290,1119 432,2631 432,4525 0,2247 -232,4066 -691,5448 -459,1387 -1150,2452 -2069,3201 -914,749 -2073,1124 -3473,1124 -1841,0 -3290,-655 -4343,-1971 -1262,-1605 -1890,-4204 -1890,-7803zm2408 9c0,3152 366,5248 1101,6282 736,1039 1645,1556 2724,1556 1079,0 1989,-522 2724,-1561 736,-1043 1101,-3134 1101,-6278 0,-3152 -366,-5248 -1101,-6282 -731,-1039 -1650,-1556 -2751,-1556 -1079,0 -1944,459 -2590,1373 -807,1164 -1208,3322 -1208,6465z"/>
    <path id="11" fill="white" fill-rule="nonzero" d="M-1133184 285273c0,-2261 232,-4089 696,-5471 468,-1387 1159,-2452 2078,-3197 914,-745 2069,-1115 3460,-1115 1025,0 1926,205 2706,620 776,415 1418,1012 1917,1792 499,776 892,1725 1177,2845 290,1119 432,2631 432,4525 0,2247 -232,4066 -691,5448 -459,1387 -1150,2452 -2069,3201 -914,749 -2073,1124 -3473,1124 -1841,0 -3290,-655 -4343,-1971 -1262,-1605 -1890,-4204 -1890,-7803zm2408 9c0,3152 366,5248 1101,6282 736,1039 1645,1556 2724,1556 1079,0 1989,-522 2724,-1561 736,-1043 1101,-3134 1101,-6278 0,-3152 -366,-5248 -1101,-6282 -731,-1039 -1650,-1556 -2751,-1556 -1079,0 -1944,459 -2590,1373 -807,1164 -1208,3322 -1208,6465z"/>
    <path id="12" fill="white" fill-rule="nonzero" d="M-1118172 278059l0 -2247 12386 0 0 1819c-1217,1297 -2430,3023 -3625,5176 -1199,2154 -2122,4369 -2778,6648 -468,1601 -771,3362 -901,5270l-2408 0c27,-1507 321,-3331 887,-5466 566,-2140 1373,-4200 2430,-6184 1057,-1984 2180,-3656 3371,-5016l-9363 0z"/>
    <path id="13" fill="white" fill-rule="nonzero" d="M-1091201 280252l-2327 187c-210,-923 -508,-1596 -896,-2015 -638,-673 -1427,-1008 -2363,-1008 -754,0 -1422,210 -1997,629 -740,539 -1320,1324 -1752,2359 -428,1039 -651,2515 -669,4427 566,-861 1262,-1503 2082,-1917 820,-419 1676,-629 2577,-629 1569,0 2907,580 4013,1734 1101,1155 1654,2644 1654,4476 0,1204 -259,2318 -776,3353 -522,1034 -1231,1824 -2140,2372 -905,548 -1935,825 -3085,825 -1957,0 -3558,-722 -4797,-2162 -1235,-1440 -1855,-3817 -1855,-7125 0,-3701 687,-6394 2055,-8075 1195,-1462 2804,-2194 4833,-2194 1507,0 2747,424 3710,1266 963,843 1543,2006 1734,3496zm-9631 8266c0,811 174,1587 517,2327 343,740 825,1302 1436,1690 615,388 1266,584 1957,584 1003,0 1859,-401 2568,-1204 709,-803 1066,-1890 1066,-3268 0,-1324 -352,-2368 -1052,-3130 -700,-762 -1592,-1146 -2675,-1146 -1061,0 -1966,383 -2706,1146 -740,762 -1110,1761 -1110,3001z"/>
    <path id="14" fill="white" fill-rule="nonzero" d="M-1305722 332150l0 -19208 2140 0 0 1824c504,-704 1075,-1235 1712,-1587 633,-352 1404,-531 2310,-531 1186,0 2229,303 3134,914 905,606 1587,1467 2051,2573 459,1110 691,2323 691,3647 0,1413 -254,2689 -762,3825 -508,1132 -1248,2002 -2220,2608 -968,602 -1989,905 -3059,905 -785,0 -1489,-165 -2109,-495 -624,-330 -1132,-745 -1534,-1248l0 6773 -2354 0zm2140 -12181c0,1779 361,3094 1079,3946 722,852 1596,1280 2622,1280 1043,0 1935,-441 2675,-1324 745,-883 1115,-2247 1115,-4097 0,-1766 -361,-3085 -1088,-3964 -727,-878 -1592,-1315 -2599,-1315 -999,0 -1882,468 -2648,1400 -771,936 -1155,2292 -1155,4075z"/>
    <path id="15" fill="white" fill-rule="nonzero" d="M-1290871 326827l0 -13884 2113 0 0 2127c539,-985 1039,-1636 1498,-1948 459,-317 963,-473 1511,-473 794,0 1601,250 2421,745l-838 2171c-571,-321 -1141,-482 -1712,-482 -513,0 -972,156 -1378,464 -406,308 -696,736 -869,1284 -263,834 -392,1748 -392,2742l0 7254 -2354 0z"/>
    <path id="16" fill="white" fill-rule="nonzero" d="M-1272466 322333l2434 321c-379,1413 -1088,2515 -2122,3295 -1034,780 -2354,1173 -3964,1173 -2024,0 -3629,-624 -4815,-1873 -1186,-1244 -1779,-2996 -1779,-5248 0,-2327 597,-4138 1797,-5422 1199,-1289 2755,-1931 4668,-1931 1850,0 3362,629 4534,1890 1173,1262 1761,3036 1761,5324 0,138 -4,348 -13,624l-10339 0c89,1520 517,2689 1293,3496 771,807 1739,1213 2894,1213 861,0 1596,-227 2203,-682 611,-455 1092,-1182 1449,-2180zm-7704 -3772l7731 0c-103,-1168 -401,-2042 -887,-2626 -745,-905 -1717,-1360 -2907,-1360 -1079,0 -1984,361 -2720,1083 -731,722 -1137,1690 -1217,2903z"/>
    <path id="17" fill="white" fill-rule="nonzero" d="M-1267057 326827l0 -13884 2113 0 0 1962c432,-678 1012,-1226 1734,-1636 722,-415 1543,-620 2466,-620 1025,0 1868,214 2524,638 655,428 1119,1021 1387,1788 1106,-1618 2537,-2425 4303,-2425 1382,0 2448,379 3188,1141 745,762 1119,1935 1119,3518l0 9519 -2354 0 0 -8739c0,-936 -80,-1614 -232,-2029 -152,-415 -428,-745 -834,-999 -401,-254 -874,-379 -1413,-379 -981,0 -1792,325 -2439,972 -647,651 -968,1690 -968,3117l0 8057 -2354 0 0 -9011c0,-1043 -192,-1828 -575,-2350 -383,-522 -1012,-785 -1882,-785 -660,0 -1271,174 -1832,522 -562,348 -968,856 -1222,1529 -250,669 -375,1636 -375,2898l0 7196 -2354 0z"/>
    <path id="18" fill="white" fill-rule="nonzero" d="M-1244773 310348l0 -2675 2354 0 0 2675 -2354 0zm0 16479l0 -13884 2354 0 0 13884 -2354 0z"/>
    <path id="19" fill="white" fill-rule="nonzero" d="M-1229761 326827l0 -2064c-1079,1574 -2541,2359 -4392,2359 -816,0 -1578,-156 -2287,-468 -709,-317 -1235,-709 -1578,-1182 -343,-477 -584,-1057 -722,-1743 -94,-464 -143,-1195 -143,-2194l0 -8592 2354 0 0 7682c0,1226 49,2055 143,2479 147,620 459,1101 941,1454 477,352 1066,531 1770,531 704,0 1364,-178 1980,-539 615,-361 1052,-856 1311,-1476 254,-620 383,-1525 383,-2706l0 -7424 2354 0 0 13884 -2113 0z"/>
    <path id="20" fill="white" fill-rule="nonzero" d="M-1223952 326827l0 -13884 2113 0 0 1962c432,-678 1012,-1226 1734,-1636 722,-415 1543,-620 2466,-620 1025,0 1868,214 2524,638 655,428 1119,1021 1387,1788 1106,-1618 2537,-2425 4303,-2425 1382,0 2448,379 3188,1141 745,762 1119,1935 1119,3518l0 9519 -2354 0 0 -8739c0,-936 -80,-1614 -232,-2029 -152,-415 -428,-745 -834,-999 -401,-254 -874,-379 -1413,-379 -981,0 -1792,325 -2439,972 -647,651 -968,1690 -968,3117l0 8057 -2354 0 0 -9011c0,-1043 -192,-1828 -575,-2350 -383,-522 -1012,-785 -1882,-785 -660,0 -1271,174 -1832,522 -562,348 -968,856 -1222,1529 -250,669 -375,1636 -375,2898l0 7196 -2354 0z"/>
    <path id="21" fill="white" fill-rule="nonzero" d="M-1199501 326827l-2194 0 0 -19154 2354 0 0 6835c994,-1239 2261,-1859 3803,-1859 852,0 1663,169 2425,513 762,343 1387,829 1882,1449 490,624 878,1373 1155,2252 281,874 419,1815 419,2813 0,2372 -589,4209 -1761,5502 -1177,1297 -2586,1944 -4231,1944 -1636,0 -2920,-682 -3852,-2042l0 1748zm-27 -7045c0,1659 227,2858 678,3598 740,1208 1739,1815 3001,1815 1030,0 1917,-446 2662,-1338 749,-892 1124,-2220 1124,-3986 0,-1810 -357,-3143 -1075,-4004 -718,-861 -1587,-1293 -2604,-1293 -1030,0 -1917,446 -2662,1338 -749,892 -1124,2180 -1124,3870z"/>
    <path id="22" fill="white" fill-rule="nonzero" d="M-1186816 326827l0 -13884 2113 0 0 2127c539,-985 1039,-1636 1498,-1948 459,-317 963,-473 1511,-473 794,0 1601,250 2421,745l-838 2171c-571,-321 -1141,-482 -1712,-482 -513,0 -972,156 -1378,464 -406,308 -696,736 -869,1284 -263,834 -392,1748 -392,2742l0 7254 -2354 0z"/>
    <path id="23" fill="white" fill-rule="nonzero" d="M-1168812 325088c-874,745 -1717,1266 -2524,1574 -807,308 -1672,459 -2599,459 -1525,0 -2697,-370 -3518,-1115 -820,-740 -1231,-1690 -1231,-2845 0,-678 156,-1297 464,-1859 312,-562 718,-1008 1217,-1347 504,-339 1066,-597 1694,-771 464,-120 1164,-236 2096,-352 1899,-223 3304,-495 4200,-807 9,-321 13,-526 13,-611 0,-954 -223,-1627 -669,-2020 -602,-531 -1498,-794 -2684,-794 -1110,0 -1931,196 -2457,584 -531,388 -918,1075 -1173,2064l-2301 -321c210,-985 553,-1783 1034,-2390 482,-606 1177,-1070 2087,-1400 905,-325 1962,-490 3157,-490 1186,0 2154,138 2898,419 740,281 1289,629 1636,1052 348,424 593,959 736,1605 76,401 116,1124 116,2162l0 3121c0,2180 49,3558 147,4142 94,584 290,1141 575,1676l-2461 0c-236,-495 -388,-1075 -455,-1739zm-187 -5217c-856,348 -2140,642 -3852,883 -972,138 -1659,294 -2060,468 -401,174 -709,428 -927,758 -218,334 -330,704 -330,1115 0,620 236,1141 713,1556 477,415 1173,624 2087,624 905,0 1712,-196 2421,-593 704,-392 1226,-932 1556,-1614 254,-531 379,-1311 379,-2341l13 -856z"/>
    <path id="24" fill="white" fill-rule="nonzero" d="M-1159208 326827l-5239 -13884 2519 0 2969 8315c321,896 620,1828 892,2796 210,-731 499,-1610 878,-2639l3085 -8471 2417 0 -5257 13884 -2265 0z"/>
    <path id="25" fill="white" fill-rule="nonzero" d="M-1150510 319885c0,-2564 713,-4463 2145,-5698 1190,-1025 2648,-1538 4365,-1538 1904,0 3464,624 4677,1873 1208,1244 1815,2969 1815,5168 0,1783 -268,3183 -803,4204 -535,1021 -1315,1815 -2341,2381 -1021,566 -2140,847 -3348,847 -1944,0 -3513,-620 -4713,-1864 -1199,-1244 -1797,-3036 -1797,-5373zm2408 4c0,1775 388,3103 1164,3982 780,883 1757,1324 2938,1324 1168,0 2140,-441 2920,-1329 776,-887 1164,-2238 1164,-4053 0,-1712 -392,-3010 -1173,-3888 -780,-883 -1752,-1324 -2911,-1324 -1182,0 -2158,437 -2938,1315 -776,878 -1164,2203 -1164,3973z"/>
    <polygon id="26" fill="white" fill-rule="nonzero" points="-1134080,326827 -1134080,324152 -1131405,324152 -1131405,326827 "/>
    <path id="27" fill="white" fill-rule="nonzero" d="M-1118247 321744l2301 321c-254,1583 -896,2818 -1935,3714 -1039,896 -2318,1342 -3830,1342 -1895,0 -3420,-620 -4570,-1859 -1155,-1239 -1730,-3014 -1730,-5324 0,-1498 250,-2804 745,-3928 495,-1119 1248,-1962 2265,-2519 1012,-562 2113,-843 3308,-843 1503,0 2738,379 3692,1141 959,762 1574,1846 1841,3246l-2274 348c-218,-932 -602,-1632 -1159,-2104 -553,-468 -1222,-704 -2006,-704 -1186,0 -2149,424 -2894,1271 -740,852 -1110,2189 -1110,4026 0,1864 357,3215 1070,4057 718,843 1650,1266 2796,1266 927,0 1699,-281 2314,-847 620,-562 1012,-1431 1177,-2604z"/>
    <path id="28" fill="white" fill-rule="nonzero" d="M-1114823 319885c0,-2564 713,-4463 2145,-5698 1190,-1025 2648,-1538 4365,-1538 1904,0 3464,624 4677,1873 1208,1244 1815,2969 1815,5168 0,1783 -268,3183 -803,4204 -535,1021 -1315,1815 -2341,2381 -1021,566 -2140,847 -3348,847 -1944,0 -3513,-620 -4713,-1864 -1199,-1244 -1797,-3036 -1797,-5373zm2408 4c0,1775 388,3103 1164,3982 780,883 1757,1324 2938,1324 1168,0 2140,-441 2920,-1329 776,-887 1164,-2238 1164,-4053 0,-1712 -392,-3010 -1173,-3888 -780,-883 -1752,-1324 -2911,-1324 -1182,0 -2158,437 -2938,1315 -776,878 -1164,2203 -1164,3973z"/>
    <path id="29" fill="white" fill-rule="nonzero" d="M-1099062 326827l0 -13884 2113 0 0 1962c432,-678 1012,-1226 1734,-1636 722,-415 1543,-620 2466,-620 1025,0 1868,214 2524,638 655,428 1119,1021 1387,1788 1106,-1618 2537,-2425 4303,-2425 1382,0 2448,379 3188,1141 745,762 1119,1935 1119,3518l0 9519 -2354 0 0 -8739c0,-936 -80,-1614 -232,-2029 -152,-415 -428,-745 -834,-999 -401,-254 -874,-379 -1413,-379 -981,0 -1792,325 -2439,972 -647,651 -968,1690 -968,3117l0 8057 -2354 0 0 -9011c0,-1043 -192,-1828 -575,-2350 -383,-522 -1012,-785 -1882,-785 -660,0 -1271,174 -1832,522 -562,348 -968,856 -1222,1529 -250,669 -375,1636 -375,2898l0 7196 -2354 0z"/>
   </g>
  </g>
  <path fill="white" d="M-473 -35235c535,2194 3344,4896 5431,5431 936,214 1980,-321 2301,-1257l0 0c428,-1364 2194,-1766 3237,-722l2916 2916c722,722 722,1980 0,2809l-2006 2006c-2087,2087 -7597,-214 -12520,-5110 -4896,-4896 -7089,-10433 -5110,-12520l1980 -1980c722,-722 1980,-722 2809,0l2916 2916c1043,1043 615,2809 -722,3237l0 0c-936,294 -1552,1338 -1231,2274z"/>
  <g id="_2176088646144">
   <path fill="#606062" fill-rule="nonzero" d="M5314 1712c80,0 144,-79 144,-176l0 -154 -144 0c-78,0 -129,64 -129,161 0,101 52,168 129,168zm-24 -417l58 0 111 82 15 -82 105 0 0 363c0,58 5,135 5,135l-110 0 -6 -109c-38,70 -104,117 -178,117 -138,0 -230,-102 -230,-256 0,-149 92,-249 230,-249z"/>
   <path fill="#606062" fill-rule="nonzero" d="M4180 1529c0,101 65,183 144,183 77,0 129,-67 129,-168 0,-97 -52,-161 -129,-161l-144 0 0 146zm0 -527l0 376 119 -83 49 0c138,0 230,100 230,249 0,154 -92,256 -230,256 -74,0 -139,-48 -177,-120l-6 113 -105 0 0 -710 120 -80z"/>
   <path fill="#606062" fill-rule="nonzero" d="M4761 1295l7 112c43,-72 113,-119 192,-119l50 0 0 124 -83 0c-95,0 -158,56 -158,139l0 241 -120 0 0 -497 112 0z"/>
   <polygon fill="#606062" fill-rule="nonzero" points="5654,1295 5807,1295 5932,1699 6057,1295 6210,1295 5992,1792 5872,1792 "/>
   <path fill="#606062" fill-rule="nonzero" d="M6495 1712c83,0 138,-67 138,-168 0,-101 -55,-168 -138,-168 -83,0 -138,67 -138,168 0,101 55,168 138,168zm0 -424c158,0 263,102 263,256 0,154 -105,256 -263,256 -158,0 -263,-102 -263,-256 0,-154 105,-256 263,-256z"/>
   <polygon fill="#005862" fill-rule="nonzero" points="5158,975 5037,975 5037,478 5158,478 "/>
   <path fill="#005862" fill-rule="nonzero" d="M2598 712c0,101 65,183 144,183 77,0 129,-67 129,-168 0,-96 -52,-161 -129,-161l-144 0 0 146zm-15 -234l15 81 112 -81 56 0c138,0 230,99 230,249 0,154 -92,256 -230,256 -68,0 -129,-41 -168,-104l0 389 -120 0 0 -790 105 0z"/>
   <path fill="#005862" fill-rule="nonzero" d="M3179 478l7 112c43,-72 113,-119 192,-119l49 0 0 124 -82 0c-95,0 -158,56 -158,139l0 241 -120 0 0 -497 112 0z"/>
   <path fill="#005862" fill-rule="nonzero" d="M3700 683l160 0c0,-86 -45,-132 -128,-132 -88,0 -135,61 -135,176 0,7 0,13 1,20l102 -64zm55 212c51,0 101,-10 142,-39l0 108c-47,13 -93,19 -142,19 -167,0 -278,-102 -278,-256 0,-154 102,-256 255,-256 140,0 233,86 233,215l0 34c0,29 -16,44 -45,44l-320 0c11,86 65,132 155,132z"/>
   <path fill="#005862" fill-rule="nonzero" d="M4060 478l113 0 7 110c38,-72 98,-118 166,-118 110,0 186,48 200,121 38,-73 99,-121 167,-121 122,0 203,58 203,146l0 358 -120 0 0 -336c0,-48 -36,-80 -90,-80 -87,0 -158,95 -158,212l0 205 -120 0 0 -336c0,-48 -36,-80 -90,-80 -87,0 -158,95 -158,212l0 129 -120 76 0 -497z"/>
   <path fill="#005862" fill-rule="nonzero" d="M5178 274c0,41 -36,74 -81,74 -45,0 -81,-33 -81,-74 0,-40 36,-73 80,-74l2 0c44,1 80,33 80,74z"/>
   <path fill="#005862" fill-rule="nonzero" d="M5399 478l0 329c0,53 42,88 105,88 95,0 173,-95 173,-212l0 -205 120 0 0 497 -113 0 -7 -116c-41,75 -107,124 -181,124 -131,0 -218,-61 -218,-154l0 -351 120 0z"/>
   <path fill="#005862" fill-rule="nonzero" d="M5905 478l113 0 7 110c38,-72 98,-118 166,-118 109,0 186,48 200,121 38,-73 99,-121 168,-121 121,0 202,58 203,146l0 359 -120 0 0 -336c0,-48 -36,-80 -90,-80 -87,0 -158,95 -158,212l0 205 -120 0 0 -336c0,-48 -36,-80 -90,-80 -87,0 -158,95 -158,212l0 205 -120 0 0 -497z"/>
   <path fill="#A9ABAE" fill-rule="nonzero" d="M2180 1228c0,24 -20,43 -43,43l-520 0c-24,0 -43,-20 -43,-43l0 -194c0,-24 19,-43 43,-43l520 0c24,0 43,20 43,43l0 194z"/>
   <path fill="#005862" fill-rule="nonzero" d="M1471 860c24,-4 43,-26 43,-50l0 -294c0,-24 -19,-43 -43,-43l-520 0c-24,0 -43,20 -43,43l0 426c0,24 19,38 42,32l523 -114z"/>
   <path fill="#373435" fill-rule="nonzero" d="M569 1104c92,-39 236,-90 236,-90 23,-8 41,-34 41,-58l0 -182c0,-24 -19,-43 -43,-43l-520 0c-24,0 -43,20 -43,43l0 453c0,24 17,34 38,22 0,0 171,-95 292,-147z"/>
  </g>
 </g>
</svg>
